<svg display="none" xmlns="http://www.w3.org/2000/svg">
    <symbol id="icon-insagram" viewBox="0 0 35 35">
        <g>
            <path
                d="M21.3895 8H13.5407C9.92895 8 7 10.8624 7 14.392V22.0625C7 25.5923 9.92895 28.4545 13.5407 28.4545H21.3895C25.0013 28.4545 27.9302 25.5923 27.9302 22.0625V14.392C27.9302 10.8624 25.0013 8 21.3895 8ZM25.968 22.0625C25.968 24.5299 23.9143 26.5369 21.3895 26.5369H13.5407C11.016 26.5369 8.96221 24.5299 8.96221 22.0625V14.392C8.96221 11.9248 11.016 9.91761 13.5407 9.91761H21.3895C23.9143 9.91761 25.968 11.9248 25.968 14.392V22.0625Z" />
            <path
                d="M17.4652 13.1138C14.5756 13.1138 12.2327 15.4034 12.2327 18.2274C12.2327 21.0515 14.5756 23.341 17.4652 23.341C20.3549 23.341 22.6978 21.0515 22.6978 18.2274C22.6978 15.4034 20.3549 13.1138 17.4652 13.1138ZM17.4652 21.4234C15.6625 21.4234 14.1949 19.9891 14.1949 18.2274C14.1949 16.4646 15.6625 15.0314 17.4652 15.0314C19.2679 15.0314 20.7356 16.4646 20.7356 18.2274C20.7356 19.9891 19.2679 21.4234 17.4652 21.4234Z" />
            <path
                d="M23.0908 13.4117C23.4759 13.4117 23.788 13.1066 23.788 12.7303C23.788 12.3539 23.4759 12.0488 23.0908 12.0488C22.7056 12.0488 22.3936 12.3539 22.3936 12.7303C22.3936 13.1066 22.7056 13.4117 23.0908 13.4117Z" />
        </g>
    </symbol>
    <symbol id="icon-telegram" viewBox="0 0 35 35">
        <g>
            <path
                d="M25.4989 10.0632L7.41992 16.9151C6.83433 17.137 6.8698 17.9543 7.47259 18.1274L12.0667 19.4468L13.7812 24.7378C13.9603 25.2905 14.6804 25.458 15.0972 25.044L17.4725 22.6853L22.1329 26.0123C22.7033 26.4195 23.5155 26.117 23.6603 25.4436L26.747 11.0912C26.8982 10.3881 26.1869 9.80244 25.4989 10.0632ZM23.2322 13.2483L14.8347 20.4706C14.751 20.5426 14.6977 20.6422 14.6853 20.7502L14.3619 23.5455C14.3514 23.6366 14.2203 23.6487 14.1922 23.5611L12.862 19.3924C12.8011 19.2015 12.8805 18.9948 13.0551 18.8895L22.9718 12.9079C23.1998 12.7702 23.4333 13.0755 23.2322 13.2483Z" />
        </g>
    </symbol>
    <symbol id="icon-vk" viewBox="0 0 35 35">
        <g>
            <path
                d="M24.0701 19.4563C24.7673 20.1282 25.5015 20.7597 26.1249 21.4964C26.3997 21.8242 26.6622 22.1642 26.8631 22.5448C27.1462 23.0872 26.8919 23.6822 26.3997 23.7145H23.3401C22.5527 23.7793 21.921 23.4676 21.392 22.9333C20.9697 22.5083 20.5759 22.0549 20.1699 21.6138C20.0017 21.4356 19.8294 21.2656 19.6202 21.132C19.202 20.8649 18.841 20.9458 18.6031 21.3749C18.3612 21.812 18.3037 22.2978 18.2792 22.7835C18.2464 23.496 18.029 23.6822 17.303 23.7145C15.7569 23.7874 14.2886 23.5567 12.927 22.7876C11.7253 22.1075 10.7943 21.1523 9.98233 20.0674C8.40326 17.9544 7.19337 15.6309 6.10663 13.2468C5.86046 12.7084 6.04093 12.421 6.64384 12.4089C7.64047 12.3886 8.64116 12.3926 9.63779 12.4089C10.0438 12.413 10.3103 12.6436 10.4703 13.0241C11.0117 14.3357 11.672 15.5824 12.5005 16.736C12.722 17.0436 12.9476 17.3512 13.2674 17.5658C13.6201 17.8047 13.8908 17.7277 14.059 17.3351C14.1656 17.0882 14.2107 16.821 14.2353 16.558C14.3133 15.6472 14.3256 14.7364 14.186 13.8297C14.1 13.263 13.7759 12.8945 13.2059 12.7893C12.9147 12.7327 12.9557 12.6274 13.0993 12.4615C13.3453 12.1781 13.575 12 14.0385 12H17.4958C18.0413 12.1052 18.1602 12.3482 18.2341 12.8865L18.2381 16.6753C18.2341 16.8858 18.3448 17.5051 18.7262 17.6427C19.0338 17.7399 19.2348 17.501 19.4152 17.3068C20.2437 16.4406 20.8343 15.4164 21.3634 14.3518C21.5971 13.8864 21.798 13.4006 21.9949 12.9149C22.1385 12.5545 22.3681 12.3806 22.7783 12.3886L26.0962 12.4008C26.1947 12.4008 26.293 12.4008 26.3915 12.4169C26.9534 12.51 27.1051 12.7489 26.9329 13.2912C26.658 14.1373 26.129 14.8457 25.6081 15.5541C25.0544 16.311 24.4598 17.0436 23.9102 17.8047C23.4058 18.5009 23.4427 18.8531 24.0701 19.4563Z" />
        </g>
    </symbol>
    <symbol id="icon-whatsapp" viewBox="0 0 35 35">
        <g>
            <path
                d="M16.8731 7.01183C11.3454 7.26899 6.9833 11.7678 7.00005 17.176C7.00516 18.8232 7.41214 20.378 8.12993 21.7516L7.02784 26.9797C6.96819 27.2625 7.22923 27.5101 7.51668 27.4436L12.7587 26.2299C14.1055 26.8855 15.6182 27.2642 17.2191 27.2881C22.8689 27.3724 27.5798 22.9883 27.756 17.4689C27.9447 11.5526 22.9482 6.7291 16.8731 7.01183ZM23.128 22.7614C21.5927 24.2616 19.5517 25.0879 17.3806 25.0879C16.1093 25.0879 14.8923 24.8091 13.7631 24.2594L13.0331 23.9041L9.81912 24.6482L10.4956 21.4388L10.136 20.7506C9.54982 19.6285 9.25261 18.4154 9.25261 17.1446C9.25261 15.0229 10.0981 13.0282 11.6332 11.5278C13.1547 10.0409 15.2291 9.20126 17.3807 9.20126C19.5518 9.20126 21.5928 10.0275 23.128 11.5277C24.6632 13.0281 25.5087 15.0227 25.5087 17.1444C25.5087 19.2473 24.6494 21.2746 23.128 22.7614Z" />
            <path
                d="M22.4191 19.3449L20.4082 18.7806C20.1439 18.7065 19.8593 18.7798 19.6666 18.9715L19.175 19.4611C18.9677 19.6675 18.653 19.7339 18.3786 19.6253C17.4274 19.2492 15.4266 17.5107 14.9157 16.641C14.7682 16.3901 14.7925 16.0766 14.9736 15.8476L15.4029 15.3049C15.571 15.0923 15.6066 14.8067 15.4953 14.5608L14.6494 12.691C14.4467 12.2432 13.8612 12.1128 13.4786 12.429C12.9174 12.8928 12.2515 13.5977 12.1706 14.3786C12.0279 15.7553 12.6321 17.4909 14.9167 19.5749C17.5563 21.9824 19.6699 22.3005 21.0462 21.9747C21.8267 21.7899 22.4505 21.0492 22.8442 20.4426C23.1125 20.0292 22.9007 19.48 22.4191 19.3449Z" />
        </g>
    </symbol>

</svg>