<?xml version="1.0" standalone="no"?>
<!DOCTYPE svg PUBLIC "-//W3C//DTD SVG 20010904//EN"
 "http://www.w3.org/TR/2001/REC-SVG-20010904/DTD/svg10.dtd">
<svg version="1.0" xmlns="http://www.w3.org/2000/svg"
 width="700.000000pt" height="700.000000pt" viewBox="0 0 700.000000 700.000000"
 preserveAspectRatio="xMidYMid meet">
<metadata>
Created by potrace 1.14, written by Peter Selinger 2001-2017
</metadata>
<g transform="translate(0.000000,700.000000) scale(0.100000,-0.100000)"
fill="#000000" stroke="none">
<path d="M2210 6979 c-66 -17 -132 -45 -225 -96 -50 -27 -178 -164 -218 -233
-21 -36 -50 -101 -65 -145 l-27 -80 -3 -1484 c-1 -817 -4 -1486 -6 -1488 -2
-2 -95 -4 -207 -5 -118 -1 -230 -6 -265 -14 -151 -30 -294 -145 -357 -284 -48
-107 -47 -68 -46 -1375 0 -1363 -3 -1289 66 -1435 47 -99 167 -220 264 -267
145 -70 67 -66 1354 -66 l1160 0 75 22 c219 66 391 253 429 468 7 37 11 501
12 1283 2 1146 1 1229 -15 1285 -45 153 -148 274 -287 338 -35 16 -160 49
-176 46 -4 -1 -97 -1 -205 0 l-198 1 -2 1493 -3 1492 -22 63 c-45 126 -92 203
-183 294 -73 72 -102 93 -181 132 -129 62 -197 74 -414 74 -144 0 -195 -4
-255 -19z m1537 -3834 c28 -14 62 -40 76 -58 53 -70 55 -86 55 -564 l0 -443
-37 -1 c-197 -4 -2761 0 -2768 4 -5 3 -8 203 -8 459 1 446 1 454 23 495 37 71
87 110 162 127 34 8 408 10 1247 8 l1198 -2 52 -25z"/>
<path d="M5163 6399 c-69 -35 -100 -119 -70 -190 20 -49 276 -490 298 -515 18
-19 19 -58 19 -987 l0 -966 138 1 138 0 -1 961 c0 892 1 962 17 982 10 12 84
136 165 276 138 237 147 257 148 306 0 56 -18 90 -69 127 -26 20 -41 21 -387
22 -333 2 -361 0 -396 -17z"/>
<path d="M5063 3453 c-60 -20 -126 -83 -153 -145 l-23 -53 0 -1355 c0 -745 3
-1380 6 -1410 23 -211 190 -403 405 -466 64 -18 103 -22 237 -23 228 -1 337
27 461 122 86 66 167 191 198 307 22 83 23 2796 1 2859 -27 77 -97 145 -170
166 -16 5 -231 9 -476 10 -353 1 -454 -2 -486 -12z"/>
</g>
</svg>
