<svg width="213" height="21" viewBox="0 0 213 21" fill="none" xmlns="http://www.w3.org/2000/svg">
<path d="M23.36 19.64C23.42 19.64 23.45 19.7 23.45 19.82C23.45 19.94 23.42 20 23.36 20C22.74 20 22.25 19.99 21.89 19.97L19.82 19.94L17.9 19.97C17.58 19.99 17.13 20 16.55 20C16.51 20 16.49 19.94 16.49 19.82C16.49 19.7 16.51 19.64 16.55 19.64C17.23 19.64 17.73 19.59 18.05 19.49C18.39 19.37 18.61 19.17 18.71 18.89C18.83 18.61 18.87 18.17 18.83 17.57L18.29 3.92L11.45 19.79C11.41 19.87 11.33 19.91 11.21 19.91C11.11 19.91 11.02 19.87 10.94 19.79L3.56 4.1L3.29 16.73C3.27 17.79 3.45 18.54 3.83 18.98C4.21 19.42 4.88 19.64 5.84 19.64C5.88 19.64 5.9 19.7 5.9 19.82C5.9 19.94 5.88 20 5.84 20C5.28 20 4.85 19.99 4.55 19.97L2.93 19.94L1.37 19.97C1.09 19.99 0.69 20 0.17 20C0.13 20 0.11 19.94 0.11 19.82C0.11 19.7 0.13 19.64 0.17 19.64C1.01 19.64 1.61 19.42 1.97 18.98C2.35 18.52 2.55 17.77 2.57 16.73L2.84 2.81C2.24 2.01 1.42 1.61 0.38 1.61C0.34 1.61 0.32 1.55 0.32 1.43C0.32 1.31 0.34 1.25 0.38 1.25L1.49 1.28C1.69 1.3 1.97 1.31 2.33 1.31C2.69 1.31 2.99 1.3 3.23 1.28C3.49 1.26 3.69 1.25 3.83 1.25C4.09 1.25 4.3 1.35 4.46 1.55C4.64 1.73 4.89 2.15 5.21 2.81L11.9 16.91L18.44 2C18.66 1.5 18.96 1.25 19.34 1.25C19.44 1.25 19.58 1.26 19.76 1.28C19.96 1.3 20.22 1.31 20.54 1.31L21.95 1.28C22.17 1.26 22.5 1.25 22.94 1.25C23 1.25 23.03 1.31 23.03 1.43C23.03 1.55 23 1.61 22.94 1.61C21.94 1.61 21.22 1.76 20.78 2.06C20.36 2.34 20.16 2.88 20.18 3.68L20.78 17.57C20.8 18.19 20.87 18.64 20.99 18.92C21.13 19.2 21.37 19.39 21.71 19.49C22.05 19.59 22.6 19.64 23.36 19.64ZM41.6581 19.64C41.7381 19.64 41.7781 19.7 41.7781 19.82C41.7781 19.94 41.7381 20 41.6581 20C41.2981 20 40.7181 19.98 39.9181 19.94C39.1181 19.9 38.5381 19.88 38.1781 19.88C37.8581 19.88 37.4381 19.9 36.9181 19.94C36.3981 19.98 35.9981 20 35.7181 20C35.6381 20 35.5981 19.94 35.5981 19.82C35.5981 19.7 35.6381 19.64 35.7181 19.64C36.2381 19.64 36.6181 19.58 36.8581 19.46C37.1181 19.32 37.2481 19.08 37.2481 18.74C37.2481 18.44 37.1281 18.02 36.8881 17.48L34.8481 13.1H30.6481L29.3581 16.31C29.0381 17.07 28.8781 17.7 28.8781 18.2C28.8781 18.72 29.0581 19.09 29.4181 19.31C29.7781 19.53 30.3281 19.64 31.0681 19.64C31.1681 19.64 31.2181 19.7 31.2181 19.82C31.2181 19.94 31.1681 20 31.0681 20C30.7681 20 30.3581 19.98 29.8381 19.94C29.2781 19.9 28.7581 19.88 28.2781 19.88C27.7781 19.88 27.1881 19.9 26.5081 19.94C25.9081 19.98 25.4281 20 25.0681 20C24.9681 20 24.9181 19.94 24.9181 19.82C24.9181 19.7 24.9681 19.64 25.0681 19.64C25.6881 19.64 26.1781 19.56 26.5381 19.4C26.8981 19.22 27.2281 18.88 27.5281 18.38C27.8481 17.88 28.2281 17.1 28.6681 16.04L32.9881 5.51C33.0281 5.43 33.0881 5.39 33.1681 5.39C33.2481 5.39 33.2981 5.43 33.3181 5.51L38.1481 15.89C38.6681 17.01 39.0781 17.82 39.3781 18.32C39.6981 18.82 40.0181 19.17 40.3381 19.37C40.6781 19.55 41.1181 19.64 41.6581 19.64ZM30.8581 12.56H34.6081L32.5981 8.24L30.8581 12.56ZM58.9259 19.64C58.9659 19.64 58.9859 19.7 58.9859 19.82C58.9859 19.94 58.9659 20 58.9259 20H55.4159C55.0559 20 54.4159 19.4 53.4959 18.2C52.5959 17 51.5059 15.34 50.2259 13.22C49.8459 13.3 49.4159 13.34 48.9359 13.34C48.4359 13.34 48.0559 13.32 47.7959 13.28V17.57C47.7959 18.19 47.8459 18.64 47.9459 18.92C48.0459 19.2 48.2459 19.39 48.5459 19.49C48.8459 19.59 49.3359 19.64 50.0159 19.64C50.0559 19.64 50.0759 19.7 50.0759 19.82C50.0759 19.94 50.0559 20 50.0159 20C49.4559 20 49.0259 19.99 48.7259 19.97L46.8359 19.94L45.0659 19.97C44.7259 19.99 44.2659 20 43.6859 20C43.6459 20 43.6259 19.94 43.6259 19.82C43.6259 19.7 43.6459 19.64 43.6859 19.64C44.3459 19.64 44.8259 19.59 45.1259 19.49C45.4459 19.39 45.6659 19.2 45.7859 18.92C45.9059 18.62 45.9659 18.17 45.9659 17.57V8.39C45.9659 7.79 45.9059 7.35 45.7859 7.07C45.6859 6.79 45.4759 6.6 45.1559 6.5C44.8559 6.38 44.3759 6.32 43.7159 6.32C43.6759 6.32 43.6559 6.26 43.6559 6.14C43.6559 6.02 43.6759 5.96 43.7159 5.96L45.0959 5.99C45.8159 6.03 46.3959 6.05 46.8359 6.05C47.1959 6.05 47.5259 6.04 47.8259 6.02C48.1459 6 48.4159 5.98 48.6359 5.96C49.2559 5.9 49.8459 5.87 50.4059 5.87C51.7059 5.87 52.6959 6.12 53.3759 6.62C54.0559 7.12 54.3959 7.84 54.3959 8.78C54.3959 9.58 54.1659 10.32 53.7059 11C53.2459 11.68 52.6259 12.23 51.8459 12.65C52.9659 14.49 53.9059 15.91 54.6659 16.91C55.4459 17.89 56.1559 18.59 56.7959 19.01C57.4559 19.43 58.1659 19.64 58.9259 19.64ZM47.7959 12.74C48.1559 12.8 48.6059 12.83 49.1459 12.83C50.3859 12.83 51.2459 12.56 51.7259 12.02C52.2259 11.46 52.4759 10.65 52.4759 9.59C52.4759 7.39 51.5259 6.29 49.6259 6.29C48.8659 6.29 48.3659 6.45 48.1259 6.77C47.9059 7.09 47.7959 7.65 47.7959 8.45V12.74ZM64.872 17.57C64.872 18.19 64.922 18.64 65.022 18.92C65.142 19.2 65.352 19.39 65.652 19.49C65.952 19.59 66.442 19.64 67.122 19.64C67.162 19.64 67.182 19.7 67.182 19.82C67.182 19.94 67.162 20 67.122 20C66.562 20 66.122 19.99 65.802 19.97L63.912 19.94L62.142 19.97C61.802 19.99 61.342 20 60.762 20C60.722 20 60.702 19.94 60.702 19.82C60.702 19.7 60.722 19.64 60.762 19.64C61.442 19.64 61.932 19.59 62.232 19.49C62.532 19.39 62.732 19.2 62.832 18.92C62.952 18.64 63.012 18.19 63.012 17.57V8.39C63.012 7.79 62.952 7.35 62.832 7.07C62.732 6.79 62.522 6.6 62.202 6.5C61.902 6.38 61.422 6.32 60.762 6.32C60.722 6.32 60.702 6.26 60.702 6.14C60.702 6.02 60.722 5.96 60.762 5.96L62.142 5.99C62.862 6.03 63.452 6.05 63.912 6.05C64.432 6.05 65.072 6.03 65.832 5.99L67.122 5.96C67.162 5.96 67.182 6.02 67.182 6.14C67.182 6.26 67.162 6.32 67.122 6.32C66.482 6.32 66.002 6.38 65.682 6.5C65.362 6.62 65.142 6.83 65.022 7.13C64.922 7.41 64.872 7.85 64.872 8.45V17.57ZM82.8223 1.79C81.5623 1.79 80.6123 2.11 79.9723 2.75C79.3523 3.39 78.9023 4.48 78.6223 6.02C78.6223 6.06 78.5623 6.08 78.4423 6.08C78.3423 6.08 78.2923 6.06 78.2923 6.02C78.3723 5.3 78.4623 4.36 78.5623 3.2C78.6623 2.04 78.7123 1.17 78.7123 0.59C78.7123 0.49 78.7623 0.44 78.8623 0.44C78.9823 0.44 79.0423 0.49 79.0423 0.59C79.0423 1.03 79.5823 1.25 80.6623 1.25C82.3623 1.31 84.3723 1.34 86.6923 1.34C87.8723 1.34 89.1223 1.32 90.4423 1.28L92.4823 1.25C93.2023 1.25 93.7323 1.2 94.0723 1.1C94.4323 0.999998 94.6623 0.799999 94.7623 0.499999C94.7823 0.419999 94.8423 0.379999 94.9423 0.379999C95.0423 0.379999 95.0923 0.419999 95.0923 0.499999C95.0323 1.08 94.9723 1.96 94.9123 3.14C94.8523 4.32 94.8223 5.28 94.8223 6.02C94.8223 6.06 94.7623 6.08 94.6423 6.08C94.5223 6.08 94.4623 6.06 94.4623 6.02C94.4023 4.46 94.0823 3.37 93.5023 2.75C92.9223 2.11 91.9623 1.79 90.6223 1.79C89.7223 1.79 89.0823 1.83 88.7023 1.91C88.3223 1.99 88.0623 2.16 87.9223 2.42C87.7823 2.68 87.7123 3.12 87.7123 3.74V17.57C87.7123 18.19 87.7823 18.64 87.9223 18.92C88.0623 19.2 88.3323 19.39 88.7323 19.49C89.1323 19.59 89.7623 19.64 90.6223 19.64C90.6823 19.64 90.7123 19.7 90.7123 19.82C90.7123 19.94 90.6823 20 90.6223 20C89.9623 20 89.4323 19.99 89.0323 19.97L86.6923 19.94L84.4423 19.97C84.0423 19.99 83.4923 20 82.7923 20C82.7523 20 82.7323 19.94 82.7323 19.82C82.7323 19.7 82.7523 19.64 82.7923 19.64C83.6523 19.64 84.2823 19.59 84.6823 19.49C85.0823 19.39 85.3523 19.2 85.4923 18.92C85.6523 18.62 85.7323 18.17 85.7323 17.57V3.68C85.7323 3.06 85.6623 2.63 85.5223 2.39C85.3823 2.13 85.1223 1.97 84.7423 1.91C84.3623 1.83 83.7223 1.79 82.8223 1.79ZM103.588 20.36C102.188 20.36 100.938 20.03 99.8375 19.37C98.7575 18.71 97.9175 17.82 97.3175 16.7C96.7175 15.58 96.4175 14.37 96.4175 13.07C96.4175 11.51 96.8175 10.17 97.6175 9.05C98.4375 7.91 99.4675 7.05 100.708 6.47C101.968 5.89 103.248 5.6 104.548 5.6C105.948 5.6 107.178 5.95 108.238 6.65C109.318 7.33 110.138 8.22 110.698 9.32C111.278 10.42 111.568 11.57 111.568 12.77C111.568 14.11 111.208 15.37 110.488 16.55C109.768 17.71 108.798 18.64 107.578 19.34C106.358 20.02 105.028 20.36 103.588 20.36ZM104.368 19.73C105.928 19.73 107.168 19.18 108.088 18.08C109.028 16.98 109.498 15.46 109.498 13.52C109.498 12.18 109.258 10.96 108.778 9.86C108.318 8.76 107.638 7.88 106.738 7.22C105.838 6.56 104.768 6.23 103.528 6.23C101.928 6.23 100.688 6.77 99.8075 7.85C98.9275 8.91 98.4875 10.4 98.4875 12.32C98.4875 13.7 98.7175 14.95 99.1775 16.07C99.6575 17.19 100.338 18.08 101.218 18.74C102.118 19.4 103.168 19.73 104.368 19.73ZM129.842 19.64C129.882 19.64 129.902 19.7 129.902 19.82C129.902 19.94 129.882 20 129.842 20H126.332C125.972 20 125.332 19.4 124.412 18.2C123.512 17 122.422 15.34 121.142 13.22C120.762 13.3 120.332 13.34 119.852 13.34C119.352 13.34 118.972 13.32 118.712 13.28V17.57C118.712 18.19 118.762 18.64 118.862 18.92C118.962 19.2 119.162 19.39 119.462 19.49C119.762 19.59 120.252 19.64 120.932 19.64C120.972 19.64 120.992 19.7 120.992 19.82C120.992 19.94 120.972 20 120.932 20C120.372 20 119.942 19.99 119.642 19.97L117.752 19.94L115.982 19.97C115.642 19.99 115.182 20 114.602 20C114.562 20 114.542 19.94 114.542 19.82C114.542 19.7 114.562 19.64 114.602 19.64C115.262 19.64 115.742 19.59 116.042 19.49C116.362 19.39 116.582 19.2 116.702 18.92C116.822 18.62 116.882 18.17 116.882 17.57V8.39C116.882 7.79 116.822 7.35 116.702 7.07C116.602 6.79 116.392 6.6 116.072 6.5C115.772 6.38 115.292 6.32 114.632 6.32C114.592 6.32 114.572 6.26 114.572 6.14C114.572 6.02 114.592 5.96 114.632 5.96L116.012 5.99C116.732 6.03 117.312 6.05 117.752 6.05C118.112 6.05 118.442 6.04 118.742 6.02C119.062 6 119.332 5.98 119.552 5.96C120.172 5.9 120.762 5.87 121.322 5.87C122.622 5.87 123.612 6.12 124.292 6.62C124.972 7.12 125.312 7.84 125.312 8.78C125.312 9.58 125.082 10.32 124.622 11C124.162 11.68 123.542 12.23 122.762 12.65C123.882 14.49 124.822 15.91 125.582 16.91C126.362 17.89 127.072 18.59 127.712 19.01C128.372 19.43 129.082 19.64 129.842 19.64ZM118.712 12.74C119.072 12.8 119.522 12.83 120.062 12.83C121.302 12.83 122.162 12.56 122.642 12.02C123.142 11.46 123.392 10.65 123.392 9.59C123.392 7.39 122.442 6.29 120.542 6.29C119.782 6.29 119.282 6.45 119.042 6.77C118.822 7.09 118.712 7.65 118.712 8.45V12.74ZM138.346 20.36C136.946 20.36 135.696 20.03 134.596 19.37C133.516 18.71 132.676 17.82 132.076 16.7C131.476 15.58 131.176 14.37 131.176 13.07C131.176 11.51 131.576 10.17 132.376 9.05C133.196 7.91 134.226 7.05 135.466 6.47C136.726 5.89 138.006 5.6 139.306 5.6C140.706 5.6 141.936 5.95 142.996 6.65C144.076 7.33 144.896 8.22 145.456 9.32C146.036 10.42 146.326 11.57 146.326 12.77C146.326 14.11 145.966 15.37 145.246 16.55C144.526 17.71 143.556 18.64 142.336 19.34C141.116 20.02 139.786 20.36 138.346 20.36ZM139.126 19.73C140.686 19.73 141.926 19.18 142.846 18.08C143.786 16.98 144.256 15.46 144.256 13.52C144.256 12.18 144.016 10.96 143.536 9.86C143.076 8.76 142.396 7.88 141.496 7.22C140.596 6.56 139.526 6.23 138.286 6.23C136.686 6.23 135.446 6.77 134.566 7.85C133.686 8.91 133.246 10.4 133.246 12.32C133.246 13.7 133.476 14.95 133.936 16.07C134.416 17.19 135.096 18.08 135.976 18.74C136.876 19.4 137.926 19.73 139.126 19.73ZM153.411 17.45C153.411 18.09 153.481 18.56 153.621 18.86C153.761 19.14 154.031 19.34 154.431 19.46C154.851 19.58 155.501 19.64 156.381 19.64C156.441 19.64 156.471 19.7 156.471 19.82C156.471 19.94 156.441 20 156.381 20C155.661 20 155.111 19.99 154.731 19.97L152.511 19.94L150.741 19.97C150.401 19.99 149.941 20 149.361 20C149.321 20 149.301 19.94 149.301 19.82C149.301 19.7 149.321 19.64 149.361 19.64C150.021 19.64 150.501 19.59 150.801 19.49C151.101 19.39 151.301 19.2 151.401 18.92C151.521 18.62 151.581 18.17 151.581 17.57V8.39C151.581 7.79 151.521 7.35 151.401 7.07C151.301 6.79 151.091 6.6 150.771 6.5C150.471 6.38 150.001 6.32 149.361 6.32C149.321 6.32 149.301 6.26 149.301 6.14C149.301 6.02 149.321 5.96 149.361 5.96L150.711 5.99C151.471 6.03 152.061 6.05 152.481 6.05C152.821 6.05 153.141 6.04 153.441 6.02C153.761 6 154.031 5.98 154.251 5.96C154.871 5.9 155.451 5.87 155.991 5.87C159.291 5.87 160.941 7.09 160.941 9.53C160.941 10.49 160.691 11.3 160.191 11.96C159.711 12.6 159.091 13.08 158.331 13.4C157.591 13.72 156.821 13.88 156.021 13.88C155.481 13.88 155.041 13.84 154.701 13.76C154.661 13.76 154.641 13.71 154.641 13.61C154.641 13.45 154.691 13.37 154.791 13.37C155.091 13.43 155.401 13.46 155.721 13.46C156.601 13.46 157.341 13.18 157.941 12.62C158.561 12.04 158.871 11.21 158.871 10.13C158.871 8.87 158.541 7.92 157.881 7.28C157.241 6.62 156.371 6.29 155.271 6.29C154.771 6.29 154.391 6.33 154.131 6.41C153.891 6.49 153.711 6.68 153.591 6.98C153.471 7.28 153.411 7.77 153.411 8.45V17.45ZM171.318 20.36C169.918 20.36 168.668 20.03 167.568 19.37C166.488 18.71 165.648 17.82 165.048 16.7C164.448 15.58 164.148 14.37 164.148 13.07C164.148 11.51 164.548 10.17 165.348 9.05C166.168 7.91 167.198 7.05 168.438 6.47C169.698 5.89 170.978 5.6 172.278 5.6C173.678 5.6 174.908 5.95 175.968 6.65C177.048 7.33 177.868 8.22 178.428 9.32C179.008 10.42 179.298 11.57 179.298 12.77C179.298 14.11 178.938 15.37 178.218 16.55C177.498 17.71 176.528 18.64 175.308 19.34C174.088 20.02 172.758 20.36 171.318 20.36ZM172.098 19.73C173.658 19.73 174.898 19.18 175.818 18.08C176.758 16.98 177.228 15.46 177.228 13.52C177.228 12.18 176.988 10.96 176.508 9.86C176.048 8.76 175.368 7.88 174.468 7.22C173.568 6.56 172.498 6.23 171.258 6.23C169.658 6.23 168.418 6.77 167.538 7.85C166.658 8.91 166.218 10.4 166.218 12.32C166.218 13.7 166.448 14.95 166.908 16.07C167.388 17.19 168.068 18.08 168.948 18.74C169.848 19.4 170.898 19.73 172.098 19.73ZM196.733 5.96C196.773 5.96 196.793 6.02 196.793 6.14C196.793 6.26 196.773 6.32 196.733 6.32C196.153 6.32 195.653 6.49 195.233 6.83C194.833 7.15 194.473 7.71 194.153 8.51L189.623 19.97C189.603 20.05 189.493 20.09 189.293 20.09C189.093 20.09 188.983 20.05 188.963 19.97L183.503 8.45C183.103 7.61 182.753 7.05 182.453 6.77C182.153 6.47 181.743 6.32 181.223 6.32C181.163 6.32 181.133 6.26 181.133 6.14C181.133 6.02 181.163 5.96 181.223 5.96L182.363 5.99C182.923 6.03 183.363 6.05 183.683 6.05C184.183 6.05 184.793 6.03 185.513 5.99L186.713 5.96C186.753 5.96 186.773 6.02 186.773 6.14C186.773 6.26 186.753 6.32 186.713 6.32C185.673 6.32 185.153 6.63 185.153 7.25C185.153 7.47 185.233 7.77 185.393 8.15L189.983 17.63L193.523 8.33C193.663 7.91 193.733 7.61 193.733 7.43C193.733 6.69 193.063 6.32 191.723 6.32C191.663 6.32 191.633 6.26 191.633 6.14C191.633 6.02 191.663 5.96 191.723 5.96L192.803 5.99C193.403 6.03 193.943 6.05 194.423 6.05C194.743 6.05 195.143 6.03 195.623 5.99L196.733 5.96ZM212.281 19.64C212.361 19.64 212.401 19.7 212.401 19.82C212.401 19.94 212.361 20 212.281 20C211.921 20 211.341 19.98 210.541 19.94C209.741 19.9 209.161 19.88 208.801 19.88C208.481 19.88 208.061 19.9 207.541 19.94C207.021 19.98 206.621 20 206.341 20C206.261 20 206.221 19.94 206.221 19.82C206.221 19.7 206.261 19.64 206.341 19.64C206.861 19.64 207.241 19.58 207.481 19.46C207.741 19.32 207.871 19.08 207.871 18.74C207.871 18.44 207.751 18.02 207.511 17.48L205.471 13.1H201.271L199.981 16.31C199.661 17.07 199.501 17.7 199.501 18.2C199.501 18.72 199.681 19.09 200.041 19.31C200.401 19.53 200.951 19.64 201.691 19.64C201.791 19.64 201.841 19.7 201.841 19.82C201.841 19.94 201.791 20 201.691 20C201.391 20 200.981 19.98 200.461 19.94C199.901 19.9 199.381 19.88 198.901 19.88C198.401 19.88 197.811 19.9 197.131 19.94C196.531 19.98 196.051 20 195.691 20C195.591 20 195.541 19.94 195.541 19.82C195.541 19.7 195.591 19.64 195.691 19.64C196.311 19.64 196.801 19.56 197.161 19.4C197.521 19.22 197.851 18.88 198.151 18.38C198.471 17.88 198.851 17.1 199.291 16.04L203.611 5.51C203.651 5.43 203.711 5.39 203.791 5.39C203.871 5.39 203.921 5.43 203.941 5.51L208.771 15.89C209.291 17.01 209.701 17.82 210.001 18.32C210.321 18.82 210.641 19.17 210.961 19.37C211.301 19.55 211.741 19.64 212.281 19.64ZM201.481 12.56H205.231L203.221 8.24L201.481 12.56Z" fill="white"/>
</svg>
