<svg width="284" height="28" viewBox="0 0 284 28" fill="none" xmlns="http://www.w3.org/2000/svg">
	<path
		d="M31.7601 26.5201C31.8134 26.5201 31.8401 26.6001 31.8401 26.7601C31.8401 26.9201 31.8134 27.0001 31.7601 27.0001C30.9067 27.0001 30.2267 26.9868 29.7201 26.9601L26.8801 26.9201L24.2001 26.9601C23.7467 26.9868 23.1201 27.0001 22.3201 27.0001C22.2401 27.0001 22.2001 26.9201 22.2001 26.7601C22.2001 26.6001 22.2401 26.5201 22.3201 26.5201C23.4934 26.5201 24.2801 26.3868 24.6801 26.1201C25.1067 25.8534 25.3201 25.2934 25.3201 24.4401L25.2801 23.7601L24.5201 6.16009L15.6801 26.7201C15.6267 26.8268 15.5201 26.8801 15.3601 26.8801C15.2001 26.8801 15.0934 26.8268 15.0401 26.7201L5.08007 6.32009L4.76007 22.4001C4.7334 23.8134 4.98674 24.8534 5.52007 25.5201C6.0534 26.1868 6.92007 26.5201 8.12007 26.5201C8.20007 26.5201 8.24007 26.6001 8.24007 26.7601C8.24007 26.9201 8.20007 27.0001 8.12007 27.0001C7.40007 27.0001 6.84007 26.9868 6.44007 26.9601L4.24007 26.9201L2.04007 26.9601C1.66674 26.9868 1.12007 27.0001 0.400068 27.0001C0.346735 27.0001 0.320068 26.9201 0.320068 26.7601C0.320068 26.6001 0.346735 26.5201 0.400068 26.5201C2.6134 26.5201 3.7334 25.1468 3.76007 22.4001L4.12007 4.48009C3.26674 3.14676 2.12007 2.48009 0.680068 2.48009C0.626735 2.48009 0.600068 2.40009 0.600068 2.24009C0.600068 2.08009 0.626735 2.00009 0.680068 2.00009L2.28007 2.04009C2.60007 2.06676 3.0134 2.08009 3.52007 2.08009C4.10674 2.08009 4.58674 2.06676 4.96007 2.04009C5.3334 2.01342 5.62673 2.00009 5.84007 2.00009C6.18674 2.00009 6.46674 2.12009 6.68007 2.36009C6.8934 2.60009 7.22674 3.17342 7.68007 4.08009L16.5601 22.1201L24.9201 3.00009C25.1867 2.33342 25.5867 2.00009 26.1201 2.00009C26.2801 2.00009 26.4934 2.01342 26.7601 2.04009C27.0267 2.06676 27.3734 2.08009 27.8001 2.08009L29.8401 2.04009C30.1601 2.01342 30.6267 2.00009 31.2401 2.00009C31.3201 2.00009 31.3601 2.08009 31.3601 2.24009C31.3601 2.40009 31.3201 2.48009 31.2401 2.48009C29.9334 2.48009 28.9867 2.69342 28.4001 3.12009C27.8401 3.54676 27.5734 4.29342 27.6001 5.36009L28.4801 23.7601C28.5334 24.5868 28.6401 25.1868 28.8001 25.5601C28.9601 25.9334 29.2534 26.1868 29.6801 26.3201C30.1067 26.4534 30.8001 26.5201 31.7601 26.5201Z"
		fill="black" />
	<path
		d="M56.1119 26.5201C56.2453 26.5201 56.3119 26.6001 56.3119 26.7601C56.3119 26.9201 56.2453 27.0001 56.1119 27.0001C55.6053 27.0001 54.8186 26.9734 53.7519 26.9201C52.6319 26.8668 51.8319 26.8401 51.3519 26.8401C50.9519 26.8401 50.3519 26.8668 49.5519 26.9201C48.8053 26.9734 48.2319 27.0001 47.8319 27.0001C47.7253 27.0001 47.6719 26.9201 47.6719 26.7601C47.6719 26.6001 47.7253 26.5201 47.8319 26.5201C48.4986 26.5201 48.9786 26.4401 49.2719 26.2801C49.5919 26.0934 49.7519 25.8134 49.7519 25.4401C49.7519 24.9601 49.5786 24.3601 49.2319 23.6401L46.6319 18.0401H41.3119L39.6719 22.0801C39.2186 23.2001 38.9919 24.0534 38.9919 24.6401C38.9919 25.3068 39.2186 25.7868 39.6719 26.0801C40.1519 26.3734 40.8853 26.5201 41.8719 26.5201C42.0053 26.5201 42.0719 26.6001 42.0719 26.7601C42.0719 26.9201 42.0053 27.0001 41.8719 27.0001C41.4719 27.0001 40.9253 26.9734 40.2319 26.9201C39.4853 26.8668 38.7919 26.8401 38.1519 26.8401C37.4853 26.8401 36.6986 26.8668 35.7919 26.9201C34.9919 26.9734 34.3519 27.0001 33.8719 27.0001C33.7386 27.0001 33.6719 26.9201 33.6719 26.7601C33.6719 26.6001 33.7386 26.5201 33.8719 26.5201C34.6986 26.5201 35.3519 26.4001 35.8319 26.1601C36.3386 25.9201 36.7919 25.4801 37.1919 24.8401C37.6186 24.1734 38.1253 23.1334 38.7119 21.7201L44.5519 7.68009C44.6053 7.57342 44.6853 7.52009 44.7919 7.52009C44.8986 7.52009 44.9786 7.57342 45.0319 7.68009L51.4319 21.5201C52.1253 22.9868 52.6853 24.0668 53.1119 24.7601C53.5386 25.4268 53.9653 25.8934 54.3919 26.1601C54.8453 26.4001 55.4186 26.5201 56.1119 26.5201ZM41.6719 17.2001H46.2319L43.7919 11.9601L41.6719 17.2001Z"
		fill="black" />
	<path
		d="M79.3766 26.5201C79.4566 26.5201 79.4966 26.6001 79.4966 26.7601C79.4966 26.9201 79.4566 27.0001 79.3766 27.0001H74.0966C73.67 27.0001 72.87 26.2001 71.6966 24.6001C70.5233 23.0001 69.1366 20.8001 67.5366 18.0001C66.9766 18.0801 66.4166 18.1201 65.8566 18.1201C65.2966 18.1201 64.87 18.1068 64.5766 18.0801V23.7601C64.5766 24.5868 64.6433 25.1868 64.7766 25.5601C64.91 25.9334 65.1633 26.1868 65.5366 26.3201C65.91 26.4534 66.5233 26.5201 67.3766 26.5201C67.4566 26.5201 67.4966 26.6001 67.4966 26.7601C67.4966 26.9201 67.4566 27.0001 67.3766 27.0001C66.63 27.0001 66.0433 26.9868 65.6166 26.9601L63.0566 26.9201L60.5766 26.9601C60.1233 26.9868 59.4966 27.0001 58.6966 27.0001C58.6433 27.0001 58.6166 26.9201 58.6166 26.7601C58.6166 26.6001 58.6433 26.5201 58.6966 26.5201C59.55 26.5201 60.1633 26.4534 60.5366 26.3201C60.9366 26.1868 61.2033 25.9334 61.3366 25.5601C61.4966 25.1601 61.5766 24.5601 61.5766 23.7601V11.5201C61.5766 10.7201 61.4966 10.1334 61.3366 9.76009C61.2033 9.38676 60.9366 9.13342 60.5366 9.00009C60.1633 8.84009 59.5766 8.76009 58.7766 8.76009C58.6966 8.76009 58.6566 8.68009 58.6566 8.52009C58.6566 8.36009 58.6966 8.28009 58.7766 8.28009L60.6166 8.32009C61.63 8.37342 62.4433 8.40009 63.0566 8.40009C63.5633 8.40009 64.0166 8.38676 64.4166 8.36009C64.8433 8.33342 65.2033 8.30676 65.4966 8.28009C66.3233 8.20009 67.11 8.16009 67.8566 8.16009C69.6966 8.16009 71.0966 8.49342 72.0566 9.16009C73.0433 9.82676 73.5366 10.7868 73.5366 12.0401C73.5366 13.1068 73.2166 14.0934 72.5766 15.0001C71.9633 15.8801 71.11 16.6001 70.0166 17.1601C71.4833 19.5868 72.7233 21.4668 73.7366 22.8001C74.7766 24.1334 75.7366 25.0934 76.6166 25.6801C77.4966 26.2401 78.4166 26.5201 79.3766 26.5201ZM64.5766 17.3201C65.1633 17.3734 65.6833 17.4001 66.1366 17.4001C67.7366 17.4001 68.8433 17.0401 69.4566 16.3201C70.0966 15.6001 70.4166 14.5334 70.4166 13.1201C70.4166 10.2401 69.23 8.80009 66.8566 8.80009C65.9233 8.80009 65.31 9.00009 65.0166 9.40009C64.7233 9.80009 64.5766 10.5334 64.5766 11.6001V17.3201Z"
		fill="black" />
	<path
		d="M87.5401 23.7601C87.5401 24.5601 87.6067 25.1601 87.7401 25.5601C87.8734 25.9334 88.1267 26.1868 88.5001 26.3201C88.9001 26.4534 89.5267 26.5201 90.3801 26.5201C90.4601 26.5201 90.5001 26.6001 90.5001 26.7601C90.5001 26.9201 90.4601 27.0001 90.3801 27.0001C89.6067 27.0001 89.0067 26.9868 88.5801 26.9601L86.0201 26.9201L83.5401 26.9601C83.0867 26.9868 82.4601 27.0001 81.6601 27.0001C81.6067 27.0001 81.5801 26.9201 81.5801 26.7601C81.5801 26.6001 81.6067 26.5201 81.6601 26.5201C82.5134 26.5201 83.1401 26.4534 83.5401 26.3201C83.9401 26.1868 84.2067 25.9334 84.3401 25.5601C84.5001 25.1601 84.5801 24.5601 84.5801 23.7601V11.5201C84.5801 10.7201 84.5001 10.1334 84.3401 9.76009C84.2067 9.38676 83.9401 9.13342 83.5401 9.00009C83.1401 8.84009 82.5134 8.76009 81.6601 8.76009C81.6067 8.76009 81.5801 8.68009 81.5801 8.52009C81.5801 8.36009 81.6067 8.28009 81.6601 8.28009L83.5401 8.32009C84.5534 8.37342 85.3801 8.40009 86.0201 8.40009C86.6867 8.40009 87.5534 8.37342 88.6201 8.32009L90.3801 8.28009C90.4601 8.28009 90.5001 8.36009 90.5001 8.52009C90.5001 8.68009 90.4601 8.76009 90.3801 8.76009C89.5534 8.76009 88.9401 8.84009 88.5401 9.00009C88.1667 9.16009 87.9001 9.44009 87.7401 9.84009C87.6067 10.2134 87.5401 10.8001 87.5401 11.6001V23.7601Z"
		fill="black" />
	<path
		d="M111.671 2.80009C110.018 2.80009 108.724 3.26676 107.791 4.20009C106.858 5.10676 106.164 6.57342 105.711 8.60009C105.684 8.65342 105.591 8.68009 105.431 8.68009C105.298 8.68009 105.231 8.65342 105.231 8.60009C105.338 7.82676 105.458 6.60009 105.591 4.92009C105.724 3.24009 105.791 1.97342 105.791 1.12009C105.791 0.986756 105.871 0.920089 106.031 0.920089C106.191 0.920089 106.271 0.986756 106.271 1.12009C106.271 1.70676 107.004 2.00009 108.471 2.00009C110.738 2.08009 113.418 2.12009 116.511 2.12009C118.084 2.12009 119.751 2.09342 121.511 2.04009L124.231 2.00009C125.218 2.00009 125.938 1.93342 126.391 1.80009C126.844 1.66675 127.138 1.40009 127.271 1.00009C127.298 0.893421 127.378 0.840088 127.511 0.840088C127.671 0.840088 127.751 0.893421 127.751 1.00009C127.671 1.74675 127.578 2.94676 127.471 4.60009C127.391 6.25342 127.351 7.58676 127.351 8.60009C127.351 8.65342 127.271 8.68009 127.111 8.68009C126.978 8.68009 126.911 8.65342 126.911 8.60009C126.724 6.54676 126.191 5.06676 125.311 4.16009C124.431 3.25342 123.124 2.80009 121.391 2.80009C120.404 2.80009 119.698 2.86676 119.271 3.00009C118.844 3.10676 118.551 3.33342 118.391 3.68009C118.231 4.00009 118.151 4.54675 118.151 5.32009V23.7601C118.151 24.5868 118.231 25.1868 118.391 25.5601C118.578 25.9334 118.924 26.1868 119.431 26.3201C119.938 26.4534 120.751 26.5201 121.871 26.5201C121.924 26.5201 121.951 26.6001 121.951 26.7601C121.951 26.9201 121.924 27.0001 121.871 27.0001C120.938 27.0001 120.204 26.9868 119.671 26.9601L116.511 26.9201L113.431 26.9601C112.898 26.9868 112.151 27.0001 111.191 27.0001C111.111 27.0001 111.071 26.9201 111.071 26.7601C111.071 26.6001 111.111 26.5201 111.191 26.5201C112.284 26.5201 113.084 26.4534 113.591 26.3201C114.098 26.1868 114.444 25.9334 114.631 25.5601C114.818 25.1601 114.911 24.5601 114.911 23.7601V5.24009C114.911 4.49342 114.831 3.96009 114.671 3.64009C114.511 3.29342 114.218 3.06676 113.791 2.96009C113.364 2.85342 112.658 2.80009 111.671 2.80009Z"
		fill="black" />
	<path
		d="M139.075 27.4801C137.208 27.4801 135.542 27.0401 134.075 26.1601C132.608 25.2801 131.462 24.0934 130.635 22.6001C129.835 21.1068 129.435 19.4801 129.435 17.7201C129.435 15.6668 129.968 13.8934 131.035 12.4001C132.102 10.8801 133.462 9.73342 135.115 8.96009C136.795 8.18676 138.502 7.80009 140.235 7.80009C142.102 7.80009 143.755 8.26676 145.195 9.20009C146.635 10.1068 147.742 11.2934 148.515 12.7601C149.288 14.2268 149.675 15.7601 149.675 17.3601C149.675 19.1468 149.195 20.8268 148.235 22.4001C147.275 23.9468 145.982 25.1868 144.355 26.1201C142.755 27.0268 140.995 27.4801 139.075 27.4801ZM140.075 26.6401C141.968 26.6401 143.475 25.9068 144.595 24.4401C145.742 22.9734 146.315 20.9334 146.315 18.3201C146.315 16.5601 146.022 14.9468 145.435 13.4801C144.848 12.0134 143.995 10.8534 142.875 10.0001C141.755 9.12009 140.422 8.68009 138.875 8.68009C136.928 8.68009 135.422 9.37342 134.355 10.7601C133.288 12.1468 132.755 14.1068 132.755 16.6401C132.755 18.5068 133.062 20.2001 133.675 21.7201C134.288 23.2401 135.142 24.4401 136.235 25.3201C137.355 26.2001 138.635 26.6401 140.075 26.6401Z"
		fill="black" />
	<path
		d="M174.244 26.5201C174.324 26.5201 174.364 26.6001 174.364 26.7601C174.364 26.9201 174.324 27.0001 174.244 27.0001H168.964C168.537 27.0001 167.737 26.2001 166.564 24.6001C165.39 23.0001 164.004 20.8001 162.404 18.0001C161.844 18.0801 161.284 18.1201 160.724 18.1201C160.164 18.1201 159.737 18.1068 159.444 18.0801V23.7601C159.444 24.5868 159.51 25.1868 159.644 25.5601C159.777 25.9334 160.03 26.1868 160.404 26.3201C160.777 26.4534 161.39 26.5201 162.244 26.5201C162.324 26.5201 162.364 26.6001 162.364 26.7601C162.364 26.9201 162.324 27.0001 162.244 27.0001C161.497 27.0001 160.91 26.9868 160.484 26.9601L157.924 26.9201L155.444 26.9601C154.99 26.9868 154.364 27.0001 153.564 27.0001C153.51 27.0001 153.484 26.9201 153.484 26.7601C153.484 26.6001 153.51 26.5201 153.564 26.5201C154.417 26.5201 155.03 26.4534 155.404 26.3201C155.804 26.1868 156.07 25.9334 156.204 25.5601C156.364 25.1601 156.444 24.5601 156.444 23.7601V11.5201C156.444 10.7201 156.364 10.1334 156.204 9.76009C156.07 9.38676 155.804 9.13342 155.404 9.00009C155.03 8.84009 154.444 8.76009 153.644 8.76009C153.564 8.76009 153.524 8.68009 153.524 8.52009C153.524 8.36009 153.564 8.28009 153.644 8.28009L155.484 8.32009C156.497 8.37342 157.31 8.40009 157.924 8.40009C158.43 8.40009 158.884 8.38676 159.284 8.36009C159.71 8.33342 160.07 8.30676 160.364 8.28009C161.19 8.20009 161.977 8.16009 162.724 8.16009C164.564 8.16009 165.964 8.49342 166.924 9.16009C167.91 9.82676 168.404 10.7868 168.404 12.0401C168.404 13.1068 168.084 14.0934 167.444 15.0001C166.83 15.8801 165.977 16.6001 164.884 17.1601C166.35 19.5868 167.59 21.4668 168.604 22.8001C169.644 24.1334 170.604 25.0934 171.484 25.6801C172.364 26.2401 173.284 26.5201 174.244 26.5201ZM159.444 17.3201C160.03 17.3734 160.55 17.4001 161.004 17.4001C162.604 17.4001 163.71 17.0401 164.324 16.3201C164.964 15.6001 165.284 14.5334 165.284 13.1201C165.284 10.2401 164.097 8.80009 161.724 8.80009C160.79 8.80009 160.177 9.00009 159.884 9.40009C159.59 9.80009 159.444 10.5334 159.444 11.6001V17.3201Z"
		fill="black" />
	<path
		d="M185.499 27.4801C183.632 27.4801 181.965 27.0401 180.499 26.1601C179.032 25.2801 177.885 24.0934 177.059 22.6001C176.259 21.1068 175.859 19.4801 175.859 17.7201C175.859 15.6668 176.392 13.8934 177.459 12.4001C178.525 10.8801 179.885 9.73342 181.539 8.96009C183.219 8.18676 184.925 7.80009 186.659 7.80009C188.525 7.80009 190.179 8.26676 191.619 9.20009C193.059 10.1068 194.165 11.2934 194.939 12.7601C195.712 14.2268 196.099 15.7601 196.099 17.3601C196.099 19.1468 195.619 20.8268 194.659 22.4001C193.699 23.9468 192.405 25.1868 190.779 26.1201C189.179 27.0268 187.419 27.4801 185.499 27.4801ZM186.499 26.6401C188.392 26.6401 189.899 25.9068 191.019 24.4401C192.165 22.9734 192.739 20.9334 192.739 18.3201C192.739 16.5601 192.445 14.9468 191.859 13.4801C191.272 12.0134 190.419 10.8534 189.299 10.0001C188.179 9.12009 186.845 8.68009 185.299 8.68009C183.352 8.68009 181.845 9.37342 180.779 10.7601C179.712 12.1468 179.179 14.1068 179.179 16.6401C179.179 18.5068 179.485 20.2001 180.099 21.7201C180.712 23.2401 181.565 24.4401 182.659 25.3201C183.779 26.2001 185.059 26.6401 186.499 26.6401Z"
		fill="black" />
	<path
		d="M205.787 23.6001C205.787 24.4268 205.881 25.0401 206.067 25.4401C206.254 25.8401 206.601 26.1201 207.107 26.2801C207.641 26.4401 208.467 26.5201 209.587 26.5201C209.667 26.5201 209.707 26.6001 209.707 26.7601C209.707 26.9201 209.667 27.0001 209.587 27.0001C208.627 27.0001 207.867 26.9868 207.307 26.9601L204.347 26.9201L201.867 26.9601C201.414 26.9868 200.787 27.0001 199.987 27.0001C199.934 27.0001 199.907 26.9201 199.907 26.7601C199.907 26.6001 199.934 26.5201 199.987 26.5201C200.814 26.5201 201.427 26.4534 201.827 26.3201C202.227 26.1868 202.494 25.9334 202.627 25.5601C202.787 25.1601 202.867 24.5601 202.867 23.7601V11.5201C202.867 10.7201 202.787 10.1334 202.627 9.76009C202.494 9.38676 202.227 9.13342 201.827 9.00009C201.427 8.84009 200.814 8.76009 199.987 8.76009C199.934 8.76009 199.907 8.68009 199.907 8.52009C199.907 8.36009 199.934 8.28009 199.987 8.28009L201.827 8.32009C202.894 8.37342 203.721 8.40009 204.307 8.40009C204.974 8.40009 205.734 8.36009 206.587 8.28009C206.881 8.25342 207.227 8.22676 207.627 8.20009C208.054 8.17342 208.521 8.16009 209.027 8.16009C213.507 8.16009 215.747 9.74676 215.747 12.9201C215.747 14.2001 215.414 15.2934 214.747 16.2001C214.107 17.0801 213.281 17.7468 212.267 18.2001C211.254 18.6268 210.201 18.8401 209.107 18.8401C208.467 18.8401 207.974 18.8001 207.627 18.7201C207.547 18.6668 207.507 18.5734 207.507 18.4401C207.507 18.2801 207.574 18.2001 207.707 18.2001C207.867 18.2001 208.027 18.2134 208.187 18.2401C208.374 18.2668 208.574 18.2801 208.787 18.2801C209.854 18.2801 210.734 17.8934 211.427 17.1201C212.121 16.3468 212.467 15.2268 212.467 13.7601C212.467 12.0801 212.081 10.8268 211.307 10.0001C210.534 9.17342 209.454 8.76009 208.067 8.76009C207.481 8.76009 207.027 8.82676 206.707 8.96009C206.414 9.06676 206.187 9.32009 206.027 9.72009C205.867 10.1201 205.787 10.7468 205.787 11.6001V23.6001Z"
		fill="black" />
	<path
		d="M229.461 27.4801C227.594 27.4801 225.928 27.0401 224.461 26.1601C222.994 25.2801 221.848 24.0934 221.021 22.6001C220.221 21.1068 219.821 19.4801 219.821 17.7201C219.821 15.6668 220.354 13.8934 221.421 12.4001C222.488 10.8801 223.848 9.73342 225.501 8.96009C227.181 8.18676 228.888 7.80009 230.621 7.80009C232.488 7.80009 234.141 8.26676 235.581 9.20009C237.021 10.1068 238.128 11.2934 238.901 12.7601C239.674 14.2268 240.061 15.7601 240.061 17.3601C240.061 19.1468 239.581 20.8268 238.621 22.4001C237.661 23.9468 236.368 25.1868 234.741 26.1201C233.141 27.0268 231.381 27.4801 229.461 27.4801ZM230.461 26.6401C232.354 26.6401 233.861 25.9068 234.981 24.4401C236.128 22.9734 236.701 20.9334 236.701 18.3201C236.701 16.5601 236.408 14.9468 235.821 13.4801C235.234 12.0134 234.381 10.8534 233.261 10.0001C232.141 9.12009 230.808 8.68009 229.261 8.68009C227.314 8.68009 225.808 9.37342 224.741 10.7601C223.674 12.1468 223.141 14.1068 223.141 16.6401C223.141 18.5068 223.448 20.2001 224.061 21.7201C224.674 23.2401 225.528 24.4401 226.621 25.3201C227.741 26.2001 229.021 26.6401 230.461 26.6401Z"
		fill="black" />
	<path
		d="M263.23 8.28009C263.283 8.28009 263.31 8.36009 263.31 8.52009C263.31 8.68009 263.283 8.76009 263.23 8.76009C262.456 8.76009 261.776 9.01342 261.19 9.52009C260.63 10.0268 260.136 10.8268 259.71 11.9201L253.79 26.9601C253.763 27.0668 253.616 27.1201 253.35 27.1201C253.083 27.1201 252.936 27.0668 252.91 26.9601L245.59 11.6001C245.056 10.4801 244.59 9.73342 244.19 9.36009C243.79 8.96009 243.243 8.76009 242.55 8.76009C242.47 8.76009 242.43 8.68009 242.43 8.52009C242.43 8.36009 242.47 8.28009 242.55 8.28009L244.15 8.32009C245.003 8.37342 245.723 8.40009 246.31 8.40009C246.976 8.40009 247.79 8.37342 248.75 8.32009L250.47 8.28009C250.523 8.28009 250.55 8.36009 250.55 8.52009C250.55 8.68009 250.523 8.76009 250.47 8.76009C249.083 8.76009 248.39 9.17342 248.39 10.0001C248.39 10.3734 248.496 10.7734 248.71 11.2001L254.43 23.2001L258.79 11.6801C258.976 11.2001 259.07 10.7601 259.07 10.3601C259.07 9.29342 258.203 8.76009 256.47 8.76009C256.39 8.76009 256.35 8.68009 256.35 8.52009C256.35 8.36009 256.39 8.28009 256.47 8.28009L257.91 8.32009C258.71 8.37342 259.456 8.40009 260.15 8.40009C260.63 8.40009 261.163 8.37342 261.75 8.32009L263.23 8.28009Z"
		fill="black" />
	<path
		d="M283.726 26.5201C283.859 26.5201 283.926 26.6001 283.926 26.7601C283.926 26.9201 283.859 27.0001 283.726 27.0001C283.219 27.0001 282.433 26.9734 281.366 26.9201C280.246 26.8668 279.446 26.8401 278.966 26.8401C278.566 26.8401 277.966 26.8668 277.166 26.9201C276.419 26.9734 275.846 27.0001 275.446 27.0001C275.339 27.0001 275.286 26.9201 275.286 26.7601C275.286 26.6001 275.339 26.5201 275.446 26.5201C276.113 26.5201 276.593 26.4401 276.886 26.2801C277.206 26.0934 277.366 25.8134 277.366 25.4401C277.366 24.9601 277.193 24.3601 276.846 23.6401L274.246 18.0401H268.926L267.286 22.0801C266.833 23.2001 266.606 24.0534 266.606 24.6401C266.606 25.3068 266.833 25.7868 267.286 26.0801C267.766 26.3734 268.499 26.5201 269.486 26.5201C269.619 26.5201 269.686 26.6001 269.686 26.7601C269.686 26.9201 269.619 27.0001 269.486 27.0001C269.086 27.0001 268.539 26.9734 267.846 26.9201C267.099 26.8668 266.406 26.8401 265.766 26.8401C265.099 26.8401 264.313 26.8668 263.406 26.9201C262.606 26.9734 261.966 27.0001 261.486 27.0001C261.353 27.0001 261.286 26.9201 261.286 26.7601C261.286 26.6001 261.353 26.5201 261.486 26.5201C262.313 26.5201 262.966 26.4001 263.446 26.1601C263.953 25.9201 264.406 25.4801 264.806 24.8401C265.233 24.1734 265.739 23.1334 266.326 21.7201L272.166 7.68009C272.219 7.57342 272.299 7.52009 272.406 7.52009C272.513 7.52009 272.593 7.57342 272.646 7.68009L279.046 21.5201C279.739 22.9868 280.299 24.0668 280.726 24.7601C281.153 25.4268 281.579 25.8934 282.006 26.1601C282.459 26.4001 283.033 26.5201 283.726 26.5201ZM269.286 17.2001H273.846L271.406 11.9601L269.286 17.2001Z"
		fill="black" />
</svg>