<svg width="35" height="35" viewBox="0 0 35 35" fill="none" xmlns="http://www.w3.org/2000/svg">
<circle cx="17.5" cy="17.5" r="17.5" fill="white"/>
<path d="M13.2482 18.2448H14.926V25.2292C14.926 25.3682 15.0367 25.48 15.1743 25.48H18.0214C18.159 25.48 18.2697 25.3682 18.2697 25.2292V18.278H20.1987C20.3243 18.278 20.429 18.1843 20.4439 18.0574L20.737 15.4854C20.746 15.4159 20.7221 15.3434 20.6772 15.292C20.6293 15.2376 20.5635 15.2074 20.4918 15.2074H18.2697V13.5965C18.2697 13.1099 18.5299 12.8651 19.0383 12.8651C19.1101 12.8651 20.4918 12.8651 20.4918 12.8651C20.6293 12.8651 20.74 12.7533 20.74 12.6143V10.2539C20.74 10.1149 20.6293 10.0031 20.4918 10.0031H18.488C18.473 10.0031 18.4431 10 18.3953 10C18.0483 10 16.8401 10.0695 15.8861 10.9551C14.8273 11.9433 14.9739 13.119 15.0098 13.3215V15.2074H13.2482C13.1107 15.2074 13 15.3192 13 15.4582V17.9969C13 18.1329 13.1107 18.2448 13.2482 18.2448Z" fill="black"/>
</svg>
