<svg width="35" height="35" viewBox="0 0 35 35" fill="none" xmlns="http://www.w3.org/2000/svg">
<circle cx="17.5" cy="17.5" r="17.5" fill="white"/>
<path d="M21.3895 8H13.5407C9.92895 8 7 10.8624 7 14.392V22.0625C7 25.5923 9.92895 28.4545 13.5407 28.4545H21.3895C25.0013 28.4545 27.9302 25.5923 27.9302 22.0625V14.392C27.9302 10.8624 25.0013 8 21.3895 8ZM25.968 22.0625C25.968 24.5299 23.9143 26.5369 21.3895 26.5369H13.5407C11.016 26.5369 8.96221 24.5299 8.96221 22.0625V14.392C8.96221 11.9248 11.016 9.91761 13.5407 9.91761H21.3895C23.9143 9.91761 25.968 11.9248 25.968 14.392V22.0625Z" fill="black"/>
<path d="M17.4652 13.1138C14.5756 13.1138 12.2327 15.4034 12.2327 18.2274C12.2327 21.0515 14.5756 23.341 17.4652 23.341C20.3549 23.341 22.6978 21.0515 22.6978 18.2274C22.6978 15.4034 20.3549 13.1138 17.4652 13.1138ZM17.4652 21.4234C15.6625 21.4234 14.1949 19.9891 14.1949 18.2274C14.1949 16.4646 15.6625 15.0314 17.4652 15.0314C19.2679 15.0314 20.7356 16.4646 20.7356 18.2274C20.7356 19.9891 19.2679 21.4234 17.4652 21.4234Z" fill="black"/>
<path d="M23.0908 13.4117C23.4759 13.4117 23.788 13.1066 23.788 12.7303C23.788 12.3539 23.4759 12.0488 23.0908 12.0488C22.7056 12.0488 22.3936 12.3539 22.3936 12.7303C22.3936 13.1066 22.7056 13.4117 23.0908 13.4117Z" fill="black"/>
</svg>
