<svg width="35" height="35" viewBox="0 0 35 35" fill="none" xmlns="http://www.w3.org/2000/svg">
<circle cx="17.5" cy="17.5" r="17.5" fill="white"/>
<path d="M25.4989 10.0632L7.41992 16.9151C6.83433 17.137 6.8698 17.9543 7.47259 18.1274L12.0667 19.4468L13.7812 24.7378C13.9603 25.2905 14.6804 25.458 15.0972 25.044L17.4725 22.6853L22.1329 26.0123C22.7033 26.4195 23.5155 26.117 23.6603 25.4436L26.747 11.0912C26.8982 10.3881 26.1869 9.80244 25.4989 10.0632ZM23.2322 13.2483L14.8347 20.4706C14.751 20.5426 14.6977 20.6422 14.6853 20.7502L14.3619 23.5455C14.3514 23.6366 14.2203 23.6487 14.1922 23.5611L12.862 19.3924C12.8011 19.2015 12.8805 18.9948 13.0551 18.8895L22.9718 12.9079C23.1998 12.7702 23.4333 13.0755 23.2322 13.2483Z" fill="black"/>
</svg>
