<svg width="35" height="35" viewBox="0 0 35 35" fill="none" xmlns="http://www.w3.org/2000/svg">
<circle cx="17.5" cy="17.5" r="17.5" fill="white"/>
<path d="M27.9965 12.4639L27.9898 12.4376C27.447 10.2932 24.9998 7.99207 22.7526 7.51332L22.7272 7.50821C19.0924 6.8306 15.4068 6.8306 11.7726 7.50821L11.7465 7.51332C9.49991 7.99207 7.05282 10.2932 6.50933 12.4376L6.50328 12.4639C5.83224 15.4588 5.83224 18.4958 6.50328 21.4907L6.50933 21.517C7.02968 23.5699 9.29456 25.7653 11.4579 26.3691V28.7629C11.4579 29.6293 12.5384 30.0548 13.1527 29.4297L15.6346 26.9086C16.1728 26.938 16.7113 26.9543 17.2499 26.9543C19.0797 26.9543 20.9101 26.7853 22.7272 26.4465L22.7526 26.4414C24.9998 25.9626 27.447 23.6615 27.9898 21.517L27.9965 21.4908C28.6676 18.4958 28.6676 15.4588 27.9965 12.4639ZM26.0326 21.0564C25.6701 22.4555 23.8121 24.1948 22.3357 24.5162C20.4031 24.8753 18.455 25.0288 16.509 24.9762C16.4703 24.9751 16.4331 24.9898 16.4061 25.0168C16.1299 25.2939 14.594 26.8348 14.594 26.8348L12.6665 28.768C12.5257 28.9115 12.2782 28.8139 12.2782 28.6156V24.65C12.2782 24.5846 12.2303 24.5289 12.1644 24.5163C12.1641 24.5162 12.1636 24.5162 12.1633 24.5161C10.687 24.1947 8.82968 22.4554 8.46654 21.0563C7.86259 18.3493 7.86259 15.6051 8.46654 12.8981C8.82968 11.4991 10.687 9.75969 12.1633 9.43844C15.5387 8.81105 18.9611 8.81105 22.3357 9.43844C23.8128 9.75969 25.6701 11.4991 26.0326 12.8981C26.6371 15.6053 26.6371 18.3493 26.0326 21.0564Z" fill="black"/>
<path d="M20.4614 22.8868C20.2345 22.8195 20.0182 22.7741 19.8172 22.6928C17.7359 21.8488 15.8202 20.7601 14.3027 19.091C13.4398 18.1419 12.7645 17.0704 12.1935 15.9364C11.9228 15.3987 11.6947 14.8398 11.4621 14.2847C11.25 13.7784 11.5624 13.2554 11.8913 12.8739C12.1999 12.5159 12.597 12.2419 13.0271 12.0399C13.3627 11.8823 13.6939 11.9732 13.9391 12.2513C14.469 12.8524 14.9558 13.4844 15.35 14.1812C15.5925 14.6098 15.526 15.1337 15.0867 15.4254C14.9798 15.4963 14.8826 15.5795 14.7831 15.6596C14.6959 15.7297 14.6138 15.8006 14.554 15.8957C14.4447 16.0696 14.4395 16.2746 14.5098 16.4636C15.0515 17.9186 15.9647 19.0501 17.4633 19.6594C17.7031 19.7569 17.9439 19.8704 18.2202 19.8389C18.6828 19.7862 18.8326 19.2902 19.1568 19.0311C19.4736 18.7779 19.8786 18.7745 20.22 18.9856C20.5614 19.1968 20.8924 19.4235 21.2213 19.6526C21.5442 19.8774 21.8657 20.0974 22.1636 20.3538C22.45 20.6003 22.5486 20.9237 22.3874 21.2582C22.0921 21.8709 21.6625 22.3806 21.0428 22.706C20.8678 22.7977 20.6588 22.8274 20.4614 22.8868C20.6588 22.8274 20.2345 22.8194 20.4614 22.8868Z" fill="black"/>
<path d="M17.2559 11.339C19.9786 11.4135 22.2148 13.1793 22.694 15.8098C22.7757 16.2581 22.8048 16.7162 22.841 17.1712C22.8563 17.3625 22.7455 17.5443 22.5342 17.5468C22.3159 17.5493 22.2177 17.3709 22.2035 17.1796C22.1755 16.801 22.156 16.4207 22.1027 16.0452C21.8208 14.0632 20.2036 12.4234 18.1848 12.0715C17.881 12.0185 17.5701 12.0046 17.2624 11.9731C17.0679 11.9531 16.8131 11.9416 16.77 11.7052C16.7338 11.5071 16.905 11.3494 17.098 11.3393C17.1505 11.3365 17.2033 11.3387 17.2559 11.339C17.2033 11.3387 19.9786 11.4135 17.2559 11.339Z" fill="black"/>
<path d="M21.393 16.5816C21.3885 16.6149 21.3861 16.693 21.3662 16.7666C21.2939 17.0336 20.8795 17.0672 20.7842 16.7975C20.7559 16.7175 20.7516 16.6265 20.7515 16.5403C20.7504 15.9768 20.6252 15.4139 20.3344 14.9235C20.0354 14.4195 19.5787 13.9959 19.0431 13.7395C18.7192 13.5845 18.3689 13.4883 18.0139 13.4308C17.8588 13.4058 17.7019 13.3906 17.546 13.3693C17.3571 13.3436 17.2562 13.226 17.2652 13.0441C17.2736 12.8735 17.401 12.7509 17.5911 12.7614C18.216 12.7961 18.8195 12.9281 19.375 13.2155C20.5046 13.8001 21.1498 14.723 21.3382 15.9551C21.3467 16.0109 21.3604 16.0662 21.3647 16.1223C21.3754 16.2607 21.3821 16.3991 21.393 16.5816C21.3821 16.3991 21.3885 16.6149 21.393 16.5816Z" fill="black"/>
<path d="M19.6993 16.5166C19.4715 16.5207 19.3496 16.3974 19.3261 16.1933C19.3098 16.051 19.2968 15.9068 19.2621 15.7683C19.1937 15.4956 19.0453 15.2429 18.8107 15.0759C18.6999 14.9969 18.5743 14.9394 18.4428 14.9024C18.2757 14.8552 18.1022 14.8681 17.9355 14.8283C17.7544 14.7849 17.6543 14.6417 17.6828 14.4757C17.7086 14.3246 17.8591 14.2067 18.0279 14.2186C19.0835 14.2932 19.8379 14.8264 19.9456 16.0409C19.9531 16.1266 19.9621 16.2171 19.9427 16.2991C19.9093 16.4394 19.803 16.5097 19.6993 16.5166C19.803 16.5097 19.4715 16.5207 19.6993 16.5166Z" fill="black"/>
</svg>
