<svg width="35" height="35" viewBox="0 0 35 35" fill="none" xmlns="http://www.w3.org/2000/svg">
<circle cx="17.5" cy="17.5" r="17.5" fill="white"/>
<path d="M24.0701 19.4563C24.7673 20.1282 25.5015 20.7597 26.1249 21.4964C26.3997 21.8242 26.6622 22.1642 26.8631 22.5448C27.1462 23.0872 26.8919 23.6822 26.3997 23.7145H23.3401C22.5527 23.7793 21.921 23.4676 21.392 22.9333C20.9697 22.5083 20.5759 22.0549 20.1699 21.6138C20.0017 21.4356 19.8294 21.2656 19.6202 21.132C19.202 20.8649 18.841 20.9458 18.6031 21.3749C18.3612 21.812 18.3037 22.2978 18.2792 22.7835C18.2464 23.496 18.029 23.6822 17.303 23.7145C15.7569 23.7874 14.2886 23.5567 12.927 22.7876C11.7253 22.1075 10.7943 21.1523 9.98233 20.0674C8.40326 17.9544 7.19337 15.6309 6.10663 13.2468C5.86046 12.7084 6.04093 12.421 6.64384 12.4089C7.64047 12.3886 8.64116 12.3926 9.63779 12.4089C10.0438 12.413 10.3103 12.6436 10.4703 13.0241C11.0117 14.3357 11.672 15.5824 12.5005 16.736C12.722 17.0436 12.9476 17.3512 13.2674 17.5658C13.6201 17.8047 13.8908 17.7277 14.059 17.3351C14.1656 17.0882 14.2107 16.821 14.2353 16.558C14.3133 15.6472 14.3256 14.7364 14.186 13.8297C14.1 13.263 13.7759 12.8945 13.2059 12.7893C12.9147 12.7327 12.9557 12.6274 13.0993 12.4615C13.3453 12.1781 13.575 12 14.0385 12H17.4958C18.0413 12.1052 18.1602 12.3482 18.2341 12.8865L18.2381 16.6753C18.2341 16.8858 18.3448 17.5051 18.7262 17.6427C19.0338 17.7399 19.2348 17.501 19.4152 17.3068C20.2437 16.4406 20.8343 15.4164 21.3634 14.3518C21.5971 13.8864 21.798 13.4006 21.9949 12.9149C22.1385 12.5545 22.3681 12.3806 22.7783 12.3886L26.0962 12.4008C26.1947 12.4008 26.293 12.4008 26.3915 12.4169C26.9534 12.51 27.1051 12.7489 26.9329 13.2912C26.658 14.1373 26.129 14.8457 25.6081 15.5541C25.0544 16.311 24.4598 17.0436 23.9102 17.8047C23.4058 18.5009 23.4427 18.8531 24.0701 19.4563Z" fill="black"/>
</svg>
