<svg width="35" height="35" viewBox="0 0 35 35" fill="none" xmlns="http://www.w3.org/2000/svg">
<circle cx="17.5" cy="17.5" r="17.5" fill="white"/>
<path d="M16.8731 7.01183C11.3454 7.26899 6.9833 11.7678 7.00005 17.176C7.00516 18.8232 7.41214 20.378 8.12993 21.7516L7.02784 26.9797C6.96819 27.2625 7.22923 27.5101 7.51668 27.4436L12.7587 26.2299C14.1055 26.8855 15.6182 27.2642 17.2191 27.2881C22.8689 27.3724 27.5798 22.9883 27.756 17.4689C27.9447 11.5526 22.9482 6.7291 16.8731 7.01183ZM23.128 22.7614C21.5927 24.2616 19.5517 25.0878 17.3806 25.0878C16.1093 25.0878 14.8923 24.8091 13.7631 24.2594L13.0331 23.9041L9.81912 24.6482L10.4956 21.4388L10.136 20.7506C9.54982 19.6285 9.25261 18.4154 9.25261 17.1446C9.25261 15.0229 10.0981 13.0282 11.6332 11.5278C13.1547 10.0409 15.2291 9.20126 17.3807 9.20126C19.5518 9.20126 21.5928 10.0275 23.128 11.5277C24.6632 13.0281 25.5087 15.0227 25.5087 17.1444C25.5087 19.2473 24.6494 21.2746 23.128 22.7614Z" fill="black"/>
<path d="M22.4191 19.3449L20.4082 18.7806C20.1439 18.7065 19.8593 18.7798 19.6666 18.9715L19.175 19.4611C18.9677 19.6675 18.653 19.7339 18.3786 19.6253C17.4274 19.2492 15.4266 17.5107 14.9157 16.641C14.7682 16.3901 14.7925 16.0766 14.9736 15.8476L15.4029 15.3049C15.571 15.0923 15.6066 14.8067 15.4953 14.5608L14.6494 12.691C14.4467 12.2432 13.8612 12.1128 13.4786 12.429C12.9174 12.8928 12.2515 13.5977 12.1706 14.3786C12.0279 15.7553 12.6321 17.4909 14.9167 19.5749C17.5563 21.9824 19.6699 22.3005 21.0462 21.9747C21.8267 21.7899 22.4505 21.0492 22.8442 20.4426C23.1125 20.0292 22.9007 19.48 22.4191 19.3449Z" fill="black"/>
</svg>
